<?xml version="1.0" encoding="UTF-8" standalone="no"?>
<svg width="1004px" height="719px" viewBox="0 0 1004 719" version="1.1" xmlns="http://www.w3.org/2000/svg" xmlns:xlink="http://www.w3.org/1999/xlink">
    <defs>
        <filter x="-50%" y="-50%" width="200%" height="200%" filterUnits="objectBoundingBox" id="filter-1">
            <feOffset dx="0" dy="2" in="SourceAlpha" result="shadowOffsetOuter1"></feOffset>
            <feGaussianBlur stdDeviation="2" in="shadowOffsetOuter1" result="shadowBlurOuter1"></feGaussianBlur>
            <feColorMatrix values="0 0 0 0 0   0 0 0 0 0   0 0 0 0 0  0 0 0 0.35 0" in="shadowBlurOuter1" type="matrix" result="shadowMatrixOuter1"></feColorMatrix>
            <feMerge>
                <feMergeNode in="shadowMatrixOuter1"></feMergeNode>
                <feMergeNode in="SourceGraphic"></feMergeNode>
            </feMerge>
        </filter>
        <path id="path-2" d="M42.0019531,341.125 C42.0019531,341.125 58.0859375,382.273438 111.517578,411.466797 C88.9960938,376.295898 127.90625,360.253906 127.90625,360.253906 L42.0019531,341.125 Z"></path>
        <path id="path-3" d="M56.2109402,354.273427 C108.439141,393.630199 158.469222,350.319758 229.194511,256.464129 C299.9198,162.608501 314.914653,54.6185128 262.686452,15.2617403 C210.458251,-24.0950321 110.784753,20.08502 40.0594641,113.940649 C-30.665825,207.796277 3.98273914,314.916655 56.2109402,354.273427 L56.2109402,354.273427 Z"></path>
        <filter x="-50%" y="-50%" width="200%" height="200%" filterUnits="objectBoundingBox" id="filter-5">
            <feOffset dx="0" dy="2" in="SourceAlpha" result="shadowOffsetOuter1"></feOffset>
            <feGaussianBlur stdDeviation="2" in="shadowOffsetOuter1" result="shadowBlurOuter1"></feGaussianBlur>
            <feColorMatrix values="0 0 0 0 0   0 0 0 0 0   0 0 0 0 0  0 0 0 0.35 0" in="shadowBlurOuter1" type="matrix" result="shadowMatrixOuter1"></feColorMatrix>
            <feMerge>
                <feMergeNode in="shadowMatrixOuter1"></feMergeNode>
                <feMergeNode in="SourceGraphic"></feMergeNode>
            </feMerge>
        </filter>
        <filter x="-50%" y="-50%" width="200%" height="200%" filterUnits="objectBoundingBox" id="filter-6">
            <feOffset dx="0" dy="2" in="SourceAlpha" result="shadowOffsetOuter1"></feOffset>
            <feGaussianBlur stdDeviation="2" in="shadowOffsetOuter1" result="shadowBlurOuter1"></feGaussianBlur>
            <feColorMatrix values="0 0 0 0 0   0 0 0 0 0   0 0 0 0 0  0 0 0 0.35 0" in="shadowBlurOuter1" type="matrix" result="shadowMatrixOuter1"></feColorMatrix>
            <feMerge>
                <feMergeNode in="shadowMatrixOuter1"></feMergeNode>
                <feMergeNode in="SourceGraphic"></feMergeNode>
            </feMerge>
        </filter>
        <filter x="-50%" y="-50%" width="200%" height="200%" filterUnits="objectBoundingBox" id="filter-7">
            <feOffset dx="0" dy="2" in="SourceAlpha" result="shadowOffsetOuter1"></feOffset>
            <feGaussianBlur stdDeviation="2" in="shadowOffsetOuter1" result="shadowBlurOuter1"></feGaussianBlur>
            <feColorMatrix values="0 0 0 0 0   0 0 0 0 0   0 0 0 0 0  0 0 0 0.35 0" in="shadowBlurOuter1" type="matrix" result="shadowMatrixOuter1"></feColorMatrix>
            <feMerge>
                <feMergeNode in="shadowMatrixOuter1"></feMergeNode>
                <feMergeNode in="SourceGraphic"></feMergeNode>
            </feMerge>
        </filter>
        <path id="path-8" d="M1.99999999,9.99999998 C-1.00000008,5.99999998 2.99999976,0.999999947 2.99999976,0.999999947"></path>
    </defs>
    <g id="Page-1" stroke="none" stroke-width="1" fill="none" fill-rule="evenodd">
        <g id="combs" transform="translate(-48.000000, -63.000000)">
            <g id="comb" transform="translate(600.000000, 347.000000)">
                <polygon id="Polygon-1" stroke="#C09603" stroke-width="3" fill="#F6C103" transform="translate(249.936518, 259.741648) rotate(-330.000000) translate(-249.936518, -259.741648) " points="249.936518 59.7924342 423.097617 159.767041 423.097617 359.716255 249.936518 459.690862 76.7754188 359.716255 76.7754188 159.767041 "></polygon>
                <polygon id="Polygon-1" fill="#C09603" transform="translate(250.311657, 259.797668) rotate(-330.000000) translate(-250.311657, -259.797668) " points="250.311657 86.7483424 400.176769 173.273005 400.176769 346.322331 250.311657 432.846993 100.446545 346.322331 100.446545 173.273005 "></polygon>
            </g>
            <g id="comb" transform="translate(300.000000, 174.000000)">
                <polygon id="Polygon-1" stroke="#C09603" stroke-width="3" fill="#F6C103" transform="translate(249.936518, 259.741648) rotate(-330.000000) translate(-249.936518, -259.741648) " points="249.936518 59.7924342 423.097617 159.767041 423.097617 359.716255 249.936518 459.690862 76.7754188 359.716255 76.7754188 159.767041 "></polygon>
                <polygon id="Polygon-1" fill="#C09603" transform="translate(250.311657, 259.797668) rotate(-330.000000) translate(-250.311657, -259.797668) " points="250.311657 86.7483424 400.176769 173.273005 400.176769 346.322331 250.311657 432.846993 100.446545 346.322331 100.446545 173.273005 "></polygon>
            </g>
            <g id="comb">
                <polygon id="Polygon-1" stroke="#C09603" stroke-width="3" fill="#F6C103" transform="translate(249.936518, 259.741648) rotate(-330.000000) translate(-249.936518, -259.741648) " points="249.936518 59.7924342 423.097617 159.767041 423.097617 359.716255 249.936518 459.690862 76.7754188 359.716255 76.7754188 159.767041 "></polygon>
                <polygon id="Polygon-1" fill="#C09603" transform="translate(250.311657, 259.797668) rotate(-330.000000) translate(-250.311657, -259.797668) " points="250.311657 86.7483424 400.176769 173.273005 400.176769 346.322331 250.311657 432.846993 100.446545 346.322331 100.446545 173.273005 "></polygon>
            </g>
            <g id="comb" transform="translate(0.000000, 347.000000)">
                <polygon id="Polygon-1" stroke="#C09603" stroke-width="3" fill="#F6C103" transform="translate(249.936518, 259.741648) rotate(-330.000000) translate(-249.936518, -259.741648) " points="249.936518 59.7924342 423.097617 159.767041 423.097617 359.716255 249.936518 459.690862 76.7754188 359.716255 76.7754188 159.767041 "></polygon>
                <polygon id="Polygon-1" fill="#C09603" transform="translate(250.311657, 259.797668) rotate(-330.000000) translate(-250.311657, -259.797668) " points="250.311657 86.7483424 400.176769 173.273005 400.176769 346.322331 250.311657 432.846993 100.446545 346.322331 100.446545 173.273005 "></polygon>
            </g>
        </g>
        <g id="bee" filter="url(#filter-1)" transform="translate(172.000000, -16.000000)">
            <g id="hand" transform="translate(426.000000, 338.000000)" stroke="#000000" stroke-width="5">
                <path d="M11.6992187,48.6992188 C11.6992187,48.6992188 43.4765625,86.65625 84.0820312,82.1328125 C124.6875,77.609375 86.515625,112.695312 86.515625,112.695312 C86.515625,112.695312 7.828125,91.8242188 1.828125,70.2617188 C-4.171875,48.6992188 11.6992187,48.6992188 11.6992187,48.6992188 Z" id="Path-6" fill="#945600"></path>
                <path d="M114.376745,141.412653 C94.2959207,138.063864 79,120.797194 79,100 C79,81.5816025 90.9969215,65.9322711 107.689702,60.2671732 C113.235271,51.9161291 118.121139,43.5468853 118.121139,36.8080161 C118.121139,16.4795101 125.508441,0 134.621139,0 C143.733838,0 151.121139,16.4795101 151.121139,36.8080161 C151.121139,39.9599056 150.561462,43.6966593 149.514689,47.7434514 C152.307834,46.0273547 156.02127,45 160.879883,45 C175.515429,45 187.379883,52.6111593 187.379883,62 C187.379883,69.6532651 179.496414,76.12533 168.654734,78.2565961 C181.091548,79.6568553 190.542371,86.6204071 190.542371,95 C190.542371,103.940989 179.782801,111.269844 166.116835,111.948679 C176.452551,114.267372 183.866211,120.578282 183.866211,128 C183.866211,137.388841 172.001757,145 157.366211,145 C146.635877,145 125.103667,145.073582 114.376745,141.412653 Z" id="Combined-Shape" fill="#542A11"></path>
                <path d="M151.544052,77.9229906 C176.975403,83.4226491 188.907261,73.3414393 187.339851,62.9658425 C181.200043,53.7047697 174.363468,46.4067377 153.143892,48.8520467 C131.924316,51.2973558 118.947933,55.1710083 118.947933,62.9658425 C118.947933,70.7606767 128.893473,73.9290826 151.544052,77.9229906 Z" id="Oval-30" transform="translate(153.212139, 63.925680) rotate(-10.000000) translate(-153.212139, -63.925680) "></path>
                <path d="M155.53901,112.880809 C173.674834,118.502451 189.734969,105.301392 189.734969,95.9517076 C189.734969,86.6020227 179.409178,75.1195035 155.53901,79.0226056 C131.668843,82.9257078 113.959437,86.6020235 113.959437,95.9517083 C113.959437,105.301393 137.403186,107.259168 155.53901,112.880809 Z" id="Oval-30-Copy" transform="translate(151.847203, 96.233879) rotate(-3.000000) translate(-151.847203, -96.233879) "></path>
                <path d="M148.942518,143.765229 C167.828425,143.765229 183.138477,136.977777 183.138477,128.605029 C183.138477,120.232282 167.828425,113.444829 148.942518,113.444829 C127.369004,117.113321 114.746559,120.232282 114.746559,128.605029 C114.746559,136.977777 130.622327,140.975758 148.942518,143.765229 Z" id="Oval-30-Copy-2" transform="translate(148.942518, 128.605029) rotate(-357.000000) translate(-148.942518, -128.605029) "></path>
            </g>
            <g id="wing" transform="translate(529.500000, 154.000000) scale(-1, 1) translate(-529.500000, -154.000000) translate(377.000000, 0.000000)">
                <circle id="Oval-27" fill-opacity="0.239999995" fill="#000000" style="mix-blend-mode: darken;" cx="252.5" cy="279.5" r="14.5"></circle>
                <path d="M145.647648,213.981559 C178.343593,213.981559 216.742552,188.540632 249.841871,178.011724 C295.854971,163.374937 292.946806,163.99493 318.793391,153.742117 C340.312342,145.205988 280.61461,124.035968 224.007672,112.611377 C195.215449,106.80044 151.556235,100.368945 126.956929,96.4285807 C76.0196747,88.2693524 50.5351647,96.4285807 39.6093906,130.370967 C28.6836166,164.313354 67.4993563,213.981559 145.647648,213.981559 Z" id="Oval-25" stroke="#000000" stroke-width="6" fill="#DDE5E8" transform="translate(180.542311, 153.742116) rotate(-300.000000) translate(-180.542311, -153.742116) "></path>
                <path d="M117.571548,281.609501 C150.267493,281.609501 188.666452,256.168574 221.765771,245.639666 C267.778871,231.002878 264.870706,231.622871 290.71729,221.370059 C312.236242,212.83393 252.538509,191.663909 195.931572,180.239319 C167.139349,174.428381 123.480135,167.996887 98.8808286,164.056522 C47.9435744,155.897294 22.4590644,164.056522 11.5332904,197.998909 C0.607516325,231.941295 39.4232561,281.609501 117.571548,281.609501 Z" id="Oval-25" stroke="#000000" stroke-width="6" fill="#DDE5E8" transform="translate(152.466211, 221.370057) rotate(-349.000000) translate(-152.466211, -221.370057) "></path>
            </g>
            <g id="feets" transform="translate(223.000000, 418.000000)" stroke="#000000" stroke-width="5" fill="#945600">
                <path d="M77.2849293,80.3124743 C84.5333607,87.6280091 95.1669283,103.063127 106.528828,121.245967 C123.51045,148.422243 141.122492,165.79911 136.265278,168.834235 C131.408064,171.869359 113.000002,153.000003 91.2885456,130.769152 C79.7340675,112.278122 71.491063,95.0301807 68.9324875,84.9382207 C63.6694439,79.2051355 57.2696798,64.3240718 52.7621809,46.2454811 C46.7497411,22.1309021 46.3808503,1.45891217 51.9382403,0.0732992291 C57.4956303,-1.31231372 66.8748305,17.1131538 72.8872703,41.2277327 C76.9181617,57.3947552 78.4124471,72.0144371 77.2849293,80.3124743 Z" id="Combined-Shape"></path>
                <path d="M29.1223013,121.362492 C35.3826407,126.721911 43.9498324,139.196772 51.5027596,154.682567 C62.3975161,177.020128 89.1478634,202.489222 84.0000009,205.000002 C78.8521383,207.510782 55.0335114,185.008191 34.8942113,162.783099 C27.1327686,146.869783 21.504146,132.573317 20.7697889,124.758486 C15.5380412,118.898788 9.22333444,104.138191 4.76218092,86.2454811 C-1.25025889,62.1309021 -1.61914966,41.4589122 3.93824032,40.0732992 C9.49563029,38.6876863 18.8748305,57.1131538 24.8872703,81.2277327 C29.0940965,98.100391 30.5380558,113.287689 29.1223013,121.362492 Z" id="Combined-Shape-Copy"></path>
            </g>
            <g id="body" transform="translate(94.000000, 277.000000)">
                <g id="Path-5">
                    <use fill="#000000" fill-rule="evenodd" xlink:href="#path-2"></use>
                    <use fill="none" xlink:href="#path-2"></use>
                </g>
                <g id="Rectangle-1-+-Rectangle-1-Copy-+-Rectangle-1-Copy-2-+-Rectangle-1-Copy-3-Mask">
                    <mask id="mask-4" fill="white">
                        <use xlink:href="#path-3"></use>
                    </mask>
                    <use id="Mask" stroke="#000000" stroke-width="5" fill="#F6C103" xlink:href="#path-3"></use>
                    <path d="M100.572105,270.023322 C144.776773,281.867927 243.428249,289.533935 243.428249,289.533935 L225.428,356.711778 C225.428,356.711778 128.030356,347.160713 83.4552092,335.216838 C38.1992539,323.090542 -44.0653051,284.501264 -44.0653051,284.501264 L-26.0650565,217.323422 C-26.0650565,217.323422 54.945671,257.797756 100.572105,270.023322 L100.572105,270.023322 Z M131,193 C173.077467,201.943842 261,224 261,224 L241,263 C241,263 152.519556,244.888037 106,235 C61.5518293,225.55225 -23,170 -23,170 L24,117 C24,117 82.1097403,182.608054 131,193 L131,193 Z M174,121 C225.032731,144.821103 288.879101,153.354752 302,161 C332.023686,178.494116 311.000015,200 311.000015,200 C311.000015,200 193.340355,177.881637 150,161 C104.340355,143.21497 48,50 48,50 C48,50 40.3559159,79.1695031 42,78 C72.6892492,56.1695031 98.9999995,20 98.9999995,20 C98.9999995,20 108.257906,90.3128482 174,121 L174,121 Z" id="Combined-Shape" fill="#000000" mask="url(#mask-4)"></path>
                </g>
            </g>
            <g id="neck" transform="translate(261.000000, 174.000000)" stroke="#000000" stroke-width="5" fill="#542A11">
                <path d="M174.867188,186.984375 L182.367188,219.484375 L172.003906,215.394531 L172.789062,240.652344 L158.199219,229.242188 L150.972656,255.242188 L130.988281,242.394531 L132.773438,260.515625 L112.394531,247.714844 L108.214844,268.320312 L96.015625,247.804688 L89.1367188,260.605469 L76.1992188,238.046875 L66.578125,246.320312 L57.5625,224.804688 L43.6679688,224.804688 L44.6679688,210.210938 L26.6367188,207.121094 L32.1679688,187.484375 L19.2734375,179.558594 L24.0625,166.5 L9.2578125,161.058594 L19.2265625,146.558594 L5.7265625,142.726563 L15.0898438,125.089844 L0.89453125,114.984375 L13,103.878906 L5.7265625,84.8476562 L17.0898438,73 L17.0898438,47.375 L38.7421875,43.1054688 L38.7421875,15.7265625 L66.578125,21.8007812 L76.1992188,0.54296875 L91.9726562,15.7265625 L174.867188,186.984375 Z" id="Path-5"></path>
            </g>
            <g id="head" transform="translate(260.000000, 79.000000)" stroke="#000000" stroke-width="5">
                <path d="M258.465873,229.360294 C278.529855,212.1836 291,188.127953 291,161.5 C291,109.309091 243.094468,67 184,67 C124.905532,67 77,109.309091 77,161.5 C77,196.511092 98.5579403,227.075274 130.589865,243.403442 C143.054765,258.443834 171.334166,288.560855 199.121094,290.230469 C220.965376,283.044805 251.26308,239.970275 258.465873,229.360294 Z" id="Combined-Shape" fill="#945600"></path>
                <path d="M45.6580869,34.3466701 C42.4282724,43.4670431 33.7270631,50 23.5,50 C10.5213084,50 0,39.4786916 0,26.5 C0,13.5213084 10.5213084,3 23.5,3 C33.2750542,3 41.6561512,8.96823984 45.1981163,17.4595447 C53.6293907,18.404059 65.3541884,21.0131426 75.0000001,28 C93.1478527,41.1452348 140.029746,93.7801514 140.029746,93.7801514 C140.029746,93.7801514 136.693056,100.088941 133.52471,102.243335 C131.68314,103.495557 124.999999,104 124.999999,104 C124.999999,104 85.2057373,54.0350431 68.3874453,42.1806696 C61.673977,37.4486812 53.2351175,35.2728481 45.6580869,34.3466701 Z" id="Combined-Shape" fill="#542A11"></path>
                <path d="M266.658087,31.3466701 C263.428272,40.4670431 254.727063,47 244.5,47 C231.521308,47 221,36.4786916 221,23.5 C221,10.5213084 231.521308,0 244.5,0 C254.275054,0 262.656151,5.96823984 266.198116,14.4595447 C274.629391,15.404059 286.354188,18.0131426 296,25 C314.147853,38.1452348 361.029746,90.7801514 361.029746,90.7801514 C361.029746,90.7801514 357.693056,97.0889407 354.52471,99.2433354 C352.68314,100.495557 345.999999,101 345.999999,101 C345.999999,101 306.205737,51.0350431 289.387445,39.1806696 C282.673977,34.4486812 274.235118,32.2728481 266.658087,31.3466701 Z" id="Combined-Shape-Copy-2" fill="#542A11" transform="translate(291.014873, 50.500000) scale(-1, 1) translate(-291.014873, -50.500000) "></path>
                <path d="M145.000001,259 C145.000001,259 114,230 123,218" id="Path-8" filter="url(#filter-5)"></path>
            </g>
            <g id="eyes" transform="translate(354.000000, 200.000000)">
                <g id="eye-left">
                    <ellipse id="Oval-1" stroke="#000000" stroke-width="2" fill="#0E3452" transform="translate(42.009859, 43.341642) rotate(-319.000000) translate(-42.009859, -43.341642) " cx="42.0098592" cy="43.3416416" rx="23.5" ry="37"></ellipse>
                    <ellipse id="Oval-1" stroke="#000000" stroke-width="2" fill="#000000" transform="translate(42.602114, 39.415778) rotate(-319.000000) translate(-42.602114, -39.415778) " cx="42.6021139" cy="39.4157783" rx="21.3713823" ry="33.6485593"></ellipse>
                    <ellipse id="Oval-1" fill="#EEEEEE" transform="translate(42.483946, 29.313056) rotate(-319.000000) translate(-42.483946, -29.313056) " cx="42.4839457" cy="29.3130563" rx="11.013815" ry="17.3409002"></ellipse>
                </g>
                <g id="eye-right" transform="translate(153.500000, 39.000000) scale(-1, 1) translate(-153.500000, -39.000000) translate(115.000000, 0.000000)">
                    <ellipse id="Oval-1" stroke="#000000" stroke-width="2" fill="#0E3452" transform="translate(38.561756, 38.858024) rotate(-319.000000) translate(-38.561756, -38.858024) " cx="38.5617565" cy="38.8580235" rx="21.0117647" ry="33.1724138"></ellipse>
                    <ellipse id="Oval-1" stroke="#000000" stroke-width="2" fill="#000000" transform="translate(39.091302, 35.338284) rotate(-319.000000) translate(-39.091302, -35.338284) " cx="39.0913019" cy="35.338284" rx="19.10853" ry="30.1676738"></ellipse>
                    <ellipse id="Oval-1" fill="#FFFFFF" transform="translate(38.985646, 26.280671) rotate(-319.000000) translate(-38.985646, -26.280671) " cx="38.9856456" cy="26.2806711" rx="9.84764633" ry="15.547014"></ellipse>
                </g>
            </g>
            <g id="wing" transform="translate(0.000000, 17.000000)">
                <circle id="Oval-27" fill-opacity="0.239999995" fill="#000000" style="mix-blend-mode: darken;" cx="288.5" cy="255.5" r="14.5"></circle>
                <path d="M116.710206,294.750151 C149.40615,294.750151 187.80511,269.309224 220.904429,258.780316 C266.917528,244.143528 265.56872,240.366049 291.415305,230.113236 C312.934256,221.577107 251.677167,204.80456 195.070229,193.379969 C166.278006,187.569032 122.618792,181.137537 98.019486,177.197172 C47.0822319,169.037944 21.5977219,177.197172 10.6719478,211.139559 C-0.253826209,245.081946 38.5619135,294.750151 116.710206,294.750151 Z" id="Oval-25" stroke="#000000" stroke-width="5" fill="#DDE5E8" transform="translate(152.341993, 234.510707) rotate(-349.000000) translate(-152.341993, -234.510707) "></path>
                <path d="M164.007332,208.311039 C196.703276,208.311039 235.102236,182.870112 268.201555,172.341204 C314.214654,157.704416 311.30649,158.324409 337.153074,148.071597 C358.672025,139.535468 298.974293,118.365447 242.367355,106.940857 C213.575133,101.129919 169.915918,94.6984248 145.316612,90.7580602 C94.379358,82.5988318 68.894848,90.7580602 57.969074,124.700447 C47.0433,158.642833 85.8590397,208.311039 164.007332,208.311039 Z" id="Oval-25" stroke="#000000" stroke-width="5" fill="#DDE5E8" transform="translate(198.901994, 148.071595) rotate(-310.000000) translate(-198.901994, -148.071595) "></path>
            </g>
            <g id="feets" transform="translate(206.000000, 443.000000)" stroke="#000000" stroke-width="5" fill="#945600">
                <path d="M77.2849293,80.3124743 C84.5333607,87.6280091 95.1669283,103.063127 106.528828,121.245967 C123.51045,148.422243 141.122492,165.79911 136.265278,168.834235 C131.408064,171.869359 113.000002,153.000003 91.2885456,130.769152 C79.7340675,112.278122 71.491063,95.0301807 68.9324875,84.9382207 C63.6694439,79.2051355 57.2696798,64.3240718 52.7621809,46.2454811 C46.7497411,22.1309021 46.3808503,1.45891217 51.9382403,0.0732992291 C57.4956303,-1.31231372 66.8748305,17.1131538 72.8872703,41.2277327 C76.9181617,57.3947552 78.4124471,72.0144371 77.2849293,80.3124743 Z" id="Combined-Shape"></path>
                <path d="M29.1223013,121.362492 C35.3826407,126.721911 43.9498324,139.196772 51.5027596,154.682567 C62.3975161,177.020128 89.1478634,202.489222 84.0000009,205.000002 C78.8521383,207.510782 55.0335114,185.008191 34.8942113,162.783099 C27.1327686,146.869783 21.504146,132.573317 20.7697889,124.758486 C15.5380412,118.898788 9.22333444,104.138191 4.76218092,86.2454811 C-1.25025889,62.1309021 -1.61914966,41.4589122 3.93824032,40.0732992 C9.49563029,38.6876863 18.8748305,57.1131538 24.8872703,81.2277327 C29.0940965,98.100391 30.5380558,113.287689 29.1223013,121.362492 Z" id="Combined-Shape-Copy"></path>
            </g>
            <g id="hand" transform="translate(283.000000, 333.000000)">
                <path d="M23.9636605,78.8602546 L59.9718785,13.8997097 C59.9718785,13.8997097 55.1352071,7.6643899 52.5928922,6.25516176 C49.4242568,4.49875845 42.8390276,4.40281536 42.8390276,4.40281536 L6.7261342,69.5521997 C6.13424178,69.9303862 5.55647124,70.4080884 5.00000004,71.0000001 C-1.44527361,76.0887058 1.68939385,82.6255246 1.68939385,82.6255246 L32.6013787,152.054979 L50.4967429,144.08745 L23.9636605,78.8602546 L23.9636605,78.8602546 Z" id="Combined-Shape" stroke="#000000" stroke-width="5" fill="#945600"></path>
                <path d="M31,5.32907052e-15 C31,5.32907052e-15 46.3085938,-0.095703125 51.7128906,2.60644531 C56.9752604,5.23763021 65,19 65,19" id="Line" stroke="#000000" stroke-width="6" stroke-linecap="square" filter="url(#filter-6)"></path>
                <path d="M68.5,216.246056 C76.7190125,214.385148 78.3160987,214.246056 85,214.246056 C87,214.246056 91.7928003,212.416785 93,211.246056 C94.9870513,209.319034 96.1004798,207.095336 98,204.246056 C102,198.246056 105,193.727514 105,187.246056 C105,185.02077 104.91135,183.246055 111.327675,183.246056 C117.744,183.246056 113.151006,174.953795 111.327673,170.721103 C107.655345,162.19615 100.879911,157.400493 89.3674766,153.913539 C71.7617783,148.581022 76.0216765,150.246056 68.5,150.246056 C43.3710439,150.246056 23,165.020659 23,183.246056 C23,201.471453 42,222.246056 68.5,216.246056 Z" id="Oval-33" stroke="#000000" stroke-width="5" fill="#542A11"></path>
                <path d="M54,211 C55.8181818,213.759815 64,216 64,216" id="Line" stroke="#000000" stroke-width="5" stroke-linecap="square"></path>
                <path d="M74,208 C75.8181818,210.759815 84,213 84,213" id="Line" stroke="#000000" stroke-width="5" stroke-linecap="square"></path>
                <g id="Group" transform="translate(89.000000, 167.000000)">
                    <path d="M2.99999997,6.82121026e-13 C9.99999997,2.99999995 15.6820093,16.5 15.6820093,16.5" id="Line" stroke="#000000" stroke-width="5" stroke-linecap="square" filter="url(#filter-7)"></path>
                    <g id="Line">
                        <use stroke="#000000" stroke-width="5" stroke-linecap="square" xlink:href="#path-8"></use>
                        <use stroke="none" xlink:href="#path-8"></use>
                    </g>
                </g>
                <path d="M47.6662455,160.148597 C60.0397023,154.63958 69.5913361,150.386918 65.7207592,141.693459 C61.8501823,133 52.0339844,137.370453 39.925091,142.761679 C27.8161976,148.152906 16.6167556,153.139219 21.8705772,161.216818 C27.1243989,169.294416 35.2927887,165.657615 47.6662455,160.148597 L47.6662455,160.148597 Z" id="Oval-32" stroke="#000000" stroke-width="5" fill="#542A11"></path>
            </g>
        </g>
    </g>
</svg>
